<?xml version="1.0" encoding="UTF-8"?>
<!DOCTYPE svg PUBLIC "-//W3C//DTD SVG 1.1//EN" "http://www.w3.org/Graphics/SVG/1.1/DTD/svg11.dtd">
<!-- Creator: CorelDRAW -->
<svg xmlns="http://www.w3.org/2000/svg" xml:space="preserve" width="77.598mm" height="77.6501mm" version="1.1" style="shape-rendering:geometricPrecision; text-rendering:geometricPrecision; image-rendering:optimizeQuality; fill-rule:evenodd; clip-rule:evenodd"
viewBox="0 0 200648.1 200782.82"
 xmlns:xlink="http://www.w3.org/1999/xlink"
 xmlns:xodm="http://www.corel.com/coreldraw/odm/2003">
 <defs>
  <style type="text/css">
   <![CDATA[
    .fil0 {fill:#3F6212}
   ]]>
  </style>
 </defs>
 <g id="Layer_x0020_1">
  <metadata id="CorelCorpID_0Corel-Layer"/>
  <g id="_2443904602240">
   <path class="fil0" d="M98973.78 3749.58c21091.09,0 40373.46,6099.24 56017.17,16958.3l13107.36 10609.8c2421.8,2369.31 2935.33,3391.2 5045.29,5900.65 45025.46,53551.41 21135.82,129544.7 -35593.2,151970.55 -18369.86,7262.05 -38475.27,10375.53 -60849.92,4677.34 -18183.17,-4630.54 -28060.43,-11140.39 -40941.28,-21999.98 -8777.29,-7399.87 -3212.78,-3041.35 -8620.08,-8711.61 -24497.02,-25688.02 -29867.6,-71929.8 -15143.12,-102256.63 16303.6,-33578.39 47019.84,-57148.43 86977.76,-57148.43zm912.25 197033.24c19735.13,0 40079.2,-6612.25 55829.19,-17146.03 2729.76,-1825.79 4445.4,-2782 6881.17,-4977.29 12243.73,-11035.67 18862.7,-16954.68 27295.83,-33820.94 23002.98,-46004.16 7586.3,-96794.52 -31744.59,-126375.1 -38925.96,-29275.99 -96828.65,-22704.33 -130571.24,12405.34 -12607.02,13117.97 -21384.57,30436.72 -25497.19,48390.28 -799.51,3489.97 -2479.72,18480.79 -1991.54,22910.93 3402.83,30885.87 8801.59,48195.31 29787.7,69194.87 13718.12,13726.65 28270.91,21794.41 47370.72,26516.74 5561.41,1374.84 16213.87,2901.2 22639.95,2901.2z"/>
   <path class="fil0" d="M25086.31 107739.43c0,35342.9 41996.27,39773.05 53244.48,17668.09 568.86,-1117.81 2637.19,-6974.77 2899.91,-8379.34 -1793.99,-551.8 -13230.45,-2598.15 -16007.79,-2903.27 -1386.99,16665.08 -22804.92,13669.25 -22804.92,-2736.75 0,-8122.58 -1529.98,-21892.41 11858.45,-21892.41 6131.04,0 9552.49,3332.24 10034.22,9121.71 2806.56,0 13868.09,-1949.91 15507.19,-2736.49 -812.96,-4263.88 -779.08,-4399.63 -2103.5,-7010.71 -9800.46,-18257.38 -42957.64,-16406.25 -50506.7,6395.31 -855.88,2585.22 -2121.34,9569.56 -2121.34,12473.86z"/>
   <path class="fil0" d="M119954.2 103178.45c0,8607.4 -826.4,12016.44 2727.7,20077.22 9110.59,20663.67 46024.59,23186.57 52916.1,-6394.27 -3753.2,-874.5 -12391.89,-2646.76 -16419.44,-2736.49 -338.21,15184.23 -22804.92,16020.46 -22804.92,-4560.98 0,-7963.04 -579.21,-20068.17 12770.7,-20068.17 4735,0 8982.08,2845.86 9121.97,9121.71 4278.36,0 12523.76,-1828.89 16419.44,-2736.49 -5434.7,-23328.01 -34715.6,-23593.57 -46910.2,-11334.84 -4112.1,4133.82 -7821.34,10821.31 -7821.34,18632.31z"/>
   <path class="fil0" d="M109007.99 73988.31c1529.21,-2890.08 2637.71,-5396.95 4814.64,-7955.8 2239.25,-2632.28 4247.59,-3825.6 6131.56,-6639.14 -4192.52,1119.37 -5846.87,5104.51 -9121.97,7297.47 -773.14,3319.31 -503.44,2924.99 -2736.49,4560.98l0 -15507.19 -16419.44 0 0 81184.94 16419.44 0 0 -61116.76c7527.6,-1753.65 6892.8,0 13682.95,0l-5094.42 -1890.43c-2420.25,-805.72 -4613.99,65.94 -7676.28,65.94z"/>
   <path class="fil0" d="M113568.98 57568.87c4386.96,-1021.88 6491.5,-3427.4 16419.44,-3648.74 -2804.75,3827.93 -2411.46,-217.98 -6098.72,8496.48 -1971.88,4660.28 -3282.59,4977.03 -6671.98,7922.96l2736.49 0c1297.01,-1936.72 2022.31,-2120.05 3302.76,-3994.71 2842.76,-4162 2579.02,-7685.07 6310.49,-10108.94 3532.89,-2294.58 2794.92,-242.8 4981.94,-3228.04 -8796.68,0 -17240.41,-543.78 -20980.42,4560.98z"/>
   <path class="fil0" d="M121379.46 73428.5c2273.38,1271.15 3699.42,3238.12 4960.22,5120.8 -7261.79,-1691.59 -6143.46,3077.29 -13682.95,-912.25 1.55,5.95 -1383.63,3978.68 7080.01,2561.17 5977.97,-1001.46 3869.82,-279.52 9339.43,175.57 -3010.32,-5689.14 -5206.13,-7342.72 -9996.2,-9159.72 -2553.42,-968.62 -2402.67,626.52 -5299.99,626.52l2944.9 542.75c1318.47,0 3282.85,278.23 4654.59,1045.16z"/>
   <path class="fil0" d="M110755.18 65503.47c0,-5722.24 923.11,-2822.85 1901.55,-7022.35 -1438.96,1054.21 -1769.68,770.81 -2473.26,3067.46 -249.01,812.96 -384.24,1510.85 -336.4,2411.2 248.23,4680.7 642.04,2305.44 908.11,1543.69z"/>
   <polygon class="fil0" points="113568.98,57568.87 112656.73,58481.12 "/>
   <polygon class="fil0" points="121778.7,58481.12 119954.2,59393.37 "/>
  </g>
 </g>
</svg>
