<?xml version="1.0" encoding="UTF-8"?>
<!DOCTYPE svg PUBLIC "-//W3C//DTD SVG 1.1//EN" "http://www.w3.org/Graphics/SVG/1.1/DTD/svg11.dtd">
<!-- Creator: CorelDRAW -->
<svg xmlns="http://www.w3.org/2000/svg" xml:space="preserve" width="109.895mm" height="48.8812mm" version="1.1" style="shape-rendering:geometricPrecision; text-rendering:geometricPrecision; image-rendering:optimizeQuality; fill-rule:evenodd; clip-rule:evenodd"
viewBox="0 0 10163.74 4520.8"
 xmlns:xlink="http://www.w3.org/1999/xlink"
 xmlns:xodm="http://www.corel.com/coreldraw/odm/2003">
 <defs>
  <style type="text/css">
   <![CDATA[
    .fil4 {fill:#01A9E6}
    .fil1 {fill:#03A54B}
    .fil6 {fill:#10AAD6}
    .fil5 {fill:#16AA57}
    .fil0 {fill:#EE0200}
    .fil7 {fill:#EE0200}
    .fil2 {fill:#F4B502}
    .fil3 {fill:#F8FDFE}
   ]]>
  </style>
 </defs>
 <g id="Layer_x0020_1">
  <metadata id="CorelCorpID_0Corel-Layer"/>
  <g id="_2445036470688">
   <path class="fil0" d="M3032.67 4116.13c16.08,-82.16 13.97,-211.33 -19.07,-279.3l-103.85 -193.71c-50.35,-93.36 -229.9,-359.25 -300.46,-443.63 -25.24,-30.17 -35.07,-56.42 -62.57,-86.61l-316.52 -426.95c-86.83,-118.3 -63.71,-99.17 -45.56,-140.88 17.79,-40.89 16.39,-66.92 59.61,-145.71l93.79 -172c38.36,-59.56 136.55,-254.19 192.27,-340.94 9.58,-14.92 17.83,-21.06 27.23,-34.54 8,-11.49 18.66,-31.91 26.15,-44.39 109.15,-182.18 251.77,-387.71 371.14,-567.92 13.62,-62.53 33.83,-125.44 58.23,-179.56 -5.37,-43.49 -57.44,-65.81 -96.81,-109.9 -14.86,-16.64 -18.24,-27.08 -32.73,-36.63 -38.76,-25.57 -402.65,-120.1 -432.33,-132.54 -61.63,-25.84 -146.79,-46.71 -213.04,-68.15 -100.81,-32.63 -126.15,-18.46 -213.32,25.36 -119.78,60.22 -281.89,233.29 -367.43,338.65 -23.26,28.65 -36.15,62.73 -71.17,67.67l-1.84 -304.08c-31.03,-25.65 -56.04,-51.04 -89.85,-81.26 -16.16,-14.45 -28.72,-25.01 -46.12,-40.06l-50.71 -44.97 -555.85 78.94c-95.26,8.58 -191.5,18.46 -287.33,27.57 -94.07,8.95 -202.92,9.93 -298.82,22.36 -1.04,57.65 16.67,133.44 20.03,193.85 23.55,422.74 -39.45,1093.05 -78.11,1503.2 -10.19,108.12 -26.52,289.71 -49.75,395.32 -14.59,66.36 -14.02,141.48 -23.4,205.69 -10.04,68.86 -15.53,133.12 -24.45,204.16l-100.01 808.33 15.67 11.7c8.54,6.64 1.13,-0.04 13.42,10.65 49.05,42.65 132.83,143.69 187.64,155.27 454.53,96.02 665.14,53.25 1114.63,68.62 39.79,-103.39 79.24,-173.88 85.18,-300.75 2.8,-59.75 1.08,-128.04 0.13,-188.28 -1.07,-68.63 -12.24,-114.9 -10.22,-186.91 17.76,9.66 178.46,300.76 199.17,338.15 86.09,155.38 50.08,92.62 117.63,149.97 212.34,180.24 70.42,140.81 355.75,90.01 28.22,-5.02 40.43,-11.31 70.2,-15.31 130.47,-17.5 819.22,-142.11 883.48,-130.48z"/>
   <path class="fil1" d="M4681.19 1398.55c-1.21,53.43 2.45,114.31 2.06,170.17 -0.54,76 -11.78,77.85 -23.83,141.35 30.67,-18.77 10.37,-6.92 19.18,-0.53 6.58,184.23 -11.12,406.84 -17.71,595.12 -16.03,457.74 -56.28,1387.02 -13.81,1808.83 71.43,50.22 49.93,30.2 129.11,106.18 69.88,67.07 54.9,56.58 170.13,72.01 338.52,45.33 549.34,82.46 898.4,41.03 111.81,-13.28 296.44,-58.11 389.39,-97.56 128.51,-54.56 205.33,-89.89 320.08,-157.52 226.53,-133.52 409.68,-320.45 562.83,-524.82 70.93,-94.66 99.24,-179.91 137.16,-230.92l7.55 75.99c-3.52,-105.41 -3.78,-215.32 10.55,-314.5 4.94,-34.15 12.57,-112.74 25.28,-140.81 9.72,-21.47 76.34,-61.79 98.03,-74.63 -29.97,1.24 -6.19,-52.29 -5.22,-124.66 4.26,-317.29 -31.26,-634.65 -176.3,-915.1 -152.88,-295.62 -355.41,-457.01 -574.51,-662.13 -102.71,-96.16 -237.03,-180.58 -370.83,-248.06 -288.07,-145.28 -667.16,-218.67 -995.31,-237.13 -84.87,-4.77 -218.09,-7.38 -300.92,1.18 -102.87,10.63 -200.96,1.89 -299.66,11.01 -15.35,151.47 30.37,558.83 8.36,705.49zm1007.7 608.53c-7.04,62.41 -11.07,187.24 -12.58,299.48 -1.51,112.24 -0.51,211.89 -2.02,299.98 -1.51,88.08 -5.54,164.59 -2.02,205.86 3.52,41.27 14.6,47.31 47.32,37.74 32.71,-9.56 87.08,-34.73 147.98,-86.07 60.9,-51.34 128.34,-128.85 169.62,-212.4 41.28,-83.55 56.37,-173.14 46.3,-252.16 -10.06,-79.02 -45.29,-147.48 -89.08,-200.32 -43.79,-52.85 -96.13,-90.09 -143.94,-113.24 -47.82,-23.16 -91.11,-32.21 -117.78,-36.74 -26.67,-4.53 -36.74,-4.53 -43.79,57.88z"/>
   <path class="fil2" d="M7395.58 2867.95c-21.69,12.84 -88.31,53.16 -98.03,74.63 -12.71,28.07 -20.34,106.66 -25.28,140.81 -14.34,99.17 -14.08,209.09 -10.55,314.5 10.08,222.88 89.93,432.42 228.97,550.08 36.51,30.9 72.37,53.51 110.18,85.87 138.9,118.87 157.83,155.26 361.27,226.74 198.55,69.77 450.4,90.79 686.56,94.28 252.98,3.74 465.75,-40.62 653.2,-128.92 361.72,-170.4 615.54,-503.78 621.29,-934.62 4.76,-355.7 -112.68,-617.07 -343.44,-829.15 -101.3,-93.1 -157.85,-135.2 -252.17,-211.51 -65.74,-53.15 -267.06,-179.19 -351.18,-219.51 -70.19,-33.66 -116.43,-73.85 -197.44,-114.53 2.21,-71.12 49.94,-118.58 120.31,-119.2 15.78,26.07 28.8,62.13 41.16,90.56 36.06,82.99 89.61,104.93 159.77,169.43 9.34,9.06 3.51,4.78 15.37,14.57l15.72 10.49c49.71,8.31 45.45,7.13 121.45,-8.45 152.32,-28.25 668.61,-135.92 782.8,-174.96l105.88 -31.96c1.27,-0.3 4.58,0.43 5.47,-1.69 0.4,-0.96 23.82,-1.77 14.78,-68.88l-37.63 -159.85c-11.05,-32.76 -22.17,-60.37 -36.16,-97.42l-48.03 -99.26c-0.83,-1.51 -1.91,-3.52 -2.75,-5.03 -36.42,-64.79 -66.99,-111.8 -104.18,-171.88 -57.02,-87.95 -148.38,-156.37 -204.75,-212.65 -63.68,-71.25 -184.63,-147.21 -264.52,-194.05 -29.15,-16.2 -182.93,-100.42 -307.7,-142.38 -133.97,-30.07 -353.42,-34.79 -499.39,-23.79 -496.63,37.45 -912.57,244.67 -1136.47,697.42 -46.29,93.6 -143.52,359.21 -122.08,482.81 67.39,388.48 263.98,518.72 494.8,728.24 51.11,46.38 118.24,96.17 172.95,132.84 35.94,24.08 162.01,94.93 179.43,131.33 -112.9,1.73 -806.68,-9.39 -849.59,5.12z"/>
   <path class="fil3" d="M4782.9 787.69c-4.12,131.56 8.36,271.19 8.49,405.05 0.13,138.89 -0.6,276.21 -3.66,415.11 -12.01,543.89 -37.6,1068.56 -49.91,1612.67 -5.78,255.3 -14.22,567.29 15.79,818.04 330.75,37.95 573.04,96.79 918.68,41.44 268.55,-43 543.88,-155.16 725.59,-290.92 50.82,-37.97 95.01,-67.75 143.04,-107.66 136.82,-113.69 264.2,-255.77 360.58,-407.26 139.51,-219.28 221.07,-482.92 218.99,-797.23 -4.52,-680.58 -294.48,-1073.09 -681.74,-1344.8 -426.77,-299.42 -1027.49,-388.29 -1655.83,-344.45zm906 1219.38c-7.04,62.41 -11.07,187.24 -12.58,299.48 -1.51,112.24 -0.51,211.89 -2.02,299.98 -1.51,88.08 -5.54,164.59 -2.02,205.86 3.52,41.27 14.6,47.31 47.32,37.74 32.71,-9.56 87.08,-34.73 147.98,-86.07 60.9,-51.34 128.34,-128.85 169.62,-212.4 41.28,-83.55 56.37,-173.14 46.3,-252.16 -10.06,-79.02 -45.29,-147.48 -89.08,-200.32 -43.79,-52.85 -96.13,-90.09 -143.94,-113.24 -47.82,-23.16 -91.11,-32.21 -117.78,-36.74 -26.67,-4.53 -36.74,-4.53 -43.79,57.88z"/>
   <path class="fil3" d="M375.08 889.85c-5.85,135.23 8.59,279.13 5.26,420.35 -10.47,443.02 -24.15,758.63 -80.2,1211.37l-142.22 1151.75c-9.82,78.18 -50.36,319.91 -43.97,383.38 280.34,52.83 673.9,62.07 978.37,47.07 78.23,-101.6 56.99,-418.08 42.77,-563.58 -10.96,-112.06 -41.02,-449.24 18.6,-563.45 10.95,-20.98 3.24,-6.58 9.1,-13.45 24.33,32.79 49.29,94.94 68.37,134.58l211.59 414.63c48.92,91.04 96.31,177.87 146.48,268.95 21.36,38.79 127.83,233.55 153.03,258.47l530.04 -95.2c165.71,-26.51 371.33,-64.02 544.31,-81.29 -7.73,-162.66 -345.6,-622.74 -429.4,-739.23l-498.48 -677.27c-31.78,-70.68 327.39,-683.71 382.34,-771.94l346.98 -530.45c24.8,-35.77 107.86,-146.9 116.99,-177.08 -155.01,-44.45 -313.29,-97.13 -466.41,-144.56 -105.63,-32.71 -132.22,-58.09 -228.05,2.67 -270.61,171.59 -657.03,814.07 -694.86,827.88 -7.45,-296.26 -29.72,-571.07 -33.08,-870.58 -68.55,-0.95 -166.6,17.51 -235.52,27.14 -255.09,35.61 -442.54,53.89 -702.03,79.85z"/>
   <path class="fil3" d="M8197.62 2963.66c-78.55,-8.08 -768.31,-12.73 -794.02,-0.34 -39.3,35.84 -94.11,548.3 75.29,809 133.03,204.73 361.61,271.56 594.54,305.08l52.4 13.65c119.84,-25.03 769.13,137.93 1216.08,-271.04 127.69,-116.83 229.34,-258.31 283.08,-476.83 54.85,-223.03 16.62,-487.23 -59.25,-671.45 -71.98,-174.8 -214.9,-318.48 -350.94,-408.47 -204.17,-135.08 -606.95,-293.23 -692.12,-443.3 -106.08,-186.95 227.26,-386.5 384.98,-228.47 67.64,67.78 89.45,195.32 132.52,250.04 110.8,-9.58 706.61,-152.32 840.39,-175.63 -7.08,-316.06 -153.11,-519.02 -321.78,-647.05 -197.83,-150.15 -407.18,-244.05 -730.03,-241.91 -520.38,3.45 -1032.94,196.62 -1235.96,698.48 -122.26,302.22 -132.33,451.48 46.61,727.08 306.28,471.73 1057.78,583.2 1007.47,930.97 -10.14,70.09 -44.37,116.37 -98.09,144.12 -41.56,21.47 -156,48.83 -208.67,24.42 -55.42,-25.67 -142.56,-238.66 -142.54,-338.36z"/>
   <path class="fil4" d="M3013.05 1060c-24.4,54.12 -44.61,117.03 -58.23,179.56 -37.31,372.12 48.35,446.07 250.71,603.84 145.48,113.42 71.03,90.82 272.37,204.12l30.23 26.33c-128.68,19.56 -239.39,21.41 -365.67,50.17 -30.22,101.84 -51.74,340.86 -60.72,454.55 -13.23,167.18 -28.67,322.87 -34.8,493.49 -12.58,349.81 -10.82,692.32 -1.89,1041.41l11.44 242.82c2.37,1.15 5.03,0.67 5.78,3.12 3.12,10.17 3.47,2.09 9.78,6.31 6.48,4.33 10.2,6.4 18.2,12.93 140.03,114.18 100.43,144.26 241.54,142.06 346.3,-5.39 653.01,-41.79 982.9,-127.52 32.41,-8.43 67.26,-9.19 94.14,-18.65 27.48,-9.66 53.08,-20.01 88.89,-27.15 47.19,-388.6 64.93,-1167.87 29.22,-1588.59l-14.02 -399.32c3.14,-165.44 50.91,-99.23 -74.95,-213.48 -147.93,-134.29 -93.59,-51.02 98.1,-234.57 53.14,-50.88 103.92,-120.91 123.35,-201.34 12.05,-63.5 23.3,-65.36 23.83,-141.35 0.39,-55.86 -3.27,-116.74 -2.06,-170.17 -48.86,-86.48 0.98,-65.67 -120.1,-221.28 -55.13,-70.85 -119.08,-111.57 -173.06,-171.59 -331.77,-368.83 -1001.66,-474.53 -1306.78,-55.46 -28.41,39.02 -46.08,73.42 -68.2,109.78z"/>
   <path class="fil3" d="M4122.65 4151.21l112.17 -34.77c32.81,-150.25 35.38,-934.25 34.44,-1130.7 -0.6,-125.29 -17.74,-250.39 -15.99,-376.32l-13.5 -457.64c-154.65,-12.99 -863.66,2.36 -1002.07,34.99 -48.54,312.71 -85.33,676.42 -90.58,1002.59 -5.51,342.33 -24.09,745.42 14.36,1080.4 137.67,11.3 369.84,-14.35 505.91,-32 184.75,-23.95 331.5,-69.64 455.26,-86.55z"/>
   <path class="fil3" d="M4172.54 1785.53c27.2,-29.42 85.43,-59.15 115.28,-90.9 34.3,-36.49 67.49,-81.74 89.42,-130.13 51.12,-112.75 53.52,-255.83 7.69,-375.39 -69.75,-181.93 -276.87,-317.34 -487.59,-376.81 -253.53,-64.98 -469.72,-48.9 -640.35,94.46 -210.99,177.27 -331.93,604.22 -38.49,821.93 178.53,132.45 415.84,178.54 643.44,151.87 199.07,-23.33 201.56,-61.07 310.6,-95.02z"/>
   <path class="fil1" d="M5479.32 2481.51c-0.71,-259.37 2.51,-564.01 47.19,-808.89 127.39,-1.28 221.94,-2.83 329.81,42.28 202.59,84.72 463.24,348.79 481.24,601.89 16.8,236.23 -268.91,537.88 -433.09,658.65 -157.68,115.97 -223.92,97.99 -420.86,95.79l-4.29 -589.72zm208.01 -474.12c-7.04,62.41 -11.07,187.24 -12.58,299.48 -1.51,112.24 -0.51,211.89 -2.02,299.98 -1.51,88.08 -5.54,164.59 -2.02,205.86 3.52,41.27 14.6,47.31 47.32,37.74 32.71,-9.56 87.08,-34.73 147.98,-86.07 60.9,-51.34 128.34,-128.85 169.62,-212.4 41.28,-83.55 56.37,-173.14 46.3,-252.16 -10.06,-79.02 -45.29,-147.48 -89.08,-200.32 -43.79,-52.85 -96.13,-90.09 -143.94,-113.24 -47.82,-23.16 -91.11,-32.21 -117.78,-36.74 -26.67,-4.53 -36.74,-4.53 -43.79,57.88z"/>
   <path class="fil5" d="M1203.86 9.23c-155.42,45.05 -261.05,217.14 -222.02,423.7 28.21,149.27 236.52,304.36 402.83,191.21 33.24,-22.62 75.41,-43.33 53.6,-97.42 -10.17,-25.22 -41.45,-89.81 -64.11,-101.48 -51.23,-26.39 -225.46,59.6 -183.81,-122.18 11.13,-48.55 46.8,-65.37 82.31,-80.89 61.27,-26.78 69.25,-8.58 87.91,-76.12 18.01,-65.24 31.58,-81.33 -17.9,-120.03 -38.66,-30.23 -87.45,-31.7 -138.81,-16.81z"/>
   <path class="fil6" d="M579.22 107.82c-4.78,53.64 2,107.02 6.93,157.48l17.75 326.18c6.89,119.86 -9.14,93.48 30.54,149.87 67.3,0.55 121.62,-19.09 191.63,-25.39 47.69,-4.28 145.52,-8.15 160.39,-51.98 5.58,-16.43 -22.63,-157.1 -30.6,-172.41 -31.46,-60.53 -86.46,-35.83 -157.65,-37.6 -10.77,-94.04 -12.15,-186.95 -20.05,-284.72 -4.94,-61.16 -3.53,-93.39 -69.06,-90.52 -48.6,2.13 -89.49,12.98 -129.87,29.09z"/>
   <path class="fil3" d="M301.15 499.4l-24.46 -40.84c-34.91,-148.56 92.34,-166.58 140.49,-192.41 35.47,-19.02 24.32,-52.64 41.45,-83.58l0.97 -48.34c-204.96,-65.58 -349.72,174.23 -329.25,369.44 21.42,204.24 271.87,306.54 404.3,132.5l-45.29 -91.34c-40.42,-2.15 -75.75,5.11 -117.57,-0.9 -41.52,-5.96 -57.57,-16.33 -70.65,-44.54z"/>
   <path class="fil3" d="M1396.01 534.98l-42.25 -95.82c-92.4,-0.6 -177.74,13.29 -207.92,-66.84 -34.49,-91.6 1.91,-151.78 80.1,-189.08 38.73,-18.49 69.25,-19.3 82.65,-57.17 72.17,-204.1 -162.42,-80.65 -208.66,-37.61 -87.54,81.48 -152.43,285.56 -68.55,421.2 85.29,137.93 250.33,148.31 364.62,25.32z"/>
   <path class="fil3" d="M598.47 121.35l30.21 572.7c59.43,-4.17 103.01,-18.86 158.34,-22.92 51.94,-3.81 108.91,-5.05 147.57,-34.35 3.43,-27.08 -19.98,-132.62 -27.05,-167.16 -40.12,-10.11 -115.17,25.25 -150.58,1.42 -21.26,-33.69 -30.49,-306.99 -31.68,-369.91 -47.92,-1.1 -85.13,6.42 -126.82,20.22z"/>
   <path class="fil7" d="M326.97 401.91c-19.38,20.17 -11.26,-28.59 -17.66,31.29 2.65,36.36 20.78,55.48 -8.16,66.21 13.08,28.21 29.13,38.58 70.65,44.54 41.82,6 77.15,-1.26 117.57,0.9l45.29 91.34c-132.43,174.04 -382.88,71.73 -404.3,-132.5 -20.48,-195.21 124.29,-435.02 329.25,-369.44l-0.97 48.34c28.8,-32.31 -4.25,-34.57 25.09,-39.15 -15.55,-23.47 1.74,-3.28 -13.6,-17.77 -14.73,-13.91 -34.38,-20.32 -59.51,-21.5 -19.28,-0.91 -71.21,6.54 -89.04,12.12 -221.6,69.48 -332.3,486.51 -28.9,630.74 53.94,25.65 114.16,32.41 171.1,13.45 41.91,-13.96 102.91,-56.51 121.03,-92.37 -1.98,-27.07 -27.01,-72.66 -37.88,-96.43 -63.75,-139.37 -233.78,76.04 -219.96,-169.77z"/>
   <path class="fil0" d="M458.64 182.58c-17.13,30.94 -5.98,64.55 -41.45,83.58 -48.16,25.83 -175.41,43.85 -140.49,192.41l24.46 40.84c28.94,-10.73 10.81,-29.85 8.16,-66.21 6.41,-59.88 -1.71,-11.12 17.66,-31.29 47.21,-83.15 39.06,-41.8 135.99,-96.85 22.98,-13.05 25.6,-12.38 43.22,-80.76 9.1,-35.33 13.35,-78.72 -22.46,-80.87 -29.34,4.58 3.71,6.84 -25.09,39.15z"/>
  </g>
 </g>
</svg>
